<svg xmlns="http://www.w3.org/2000/svg" viewBox="0 0 64 64" width="64" height="64">
<path d="M7.68 45.72L8.03 45.12L8.37 44.41L8.72 43.60L9.07 42.70L9.42 41.71L9.76 40.64L10.11 39.50L10.46 38.30L10.81 37.05L11.15 35.77L11.50 34.45L11.85 33.11L12.20 31.76L12.54 30.41L12.89 29.08L13.24 27.77L13.59 26.49L13.93 25.26L14.28 24.08L14.63 22.97L14.98 21.93L15.32 20.97L15.67 20.10L16.02 19.32L16.37 18.65L16.71 18.09L17.06 17.63L17.41 17.29L17.76 17.07L18.10 16.98L18.45 17.00L18.80 17.14L19.15 17.40L19.49 17.78L19.84 18.28L20.19 18.88L20.53 19.59L20.88 20.40L21.23 21.30L21.58 22.29L21.92 23.36L22.27 24.50L22.62 25.70L22.97 26.95L23.31 28.23L23.66 29.55L24.01 30.89L24.36 32.24L24.70 33.59L25.05 34.92L25.40 36.23L25.75 37.51L26.09 38.74L26.44 39.92L26.79 41.03L27.14 42.07L27.48 43.03L27.83 43.90L28.18 44.68L28.53 45.35L28.87 45.91L29.22 46.37L29.57 46.71L29.92 46.93L30.26 47.02L30.61 47.00L30.96 46.86L31.31 46.60L31.65 46.22L32.00 45.72L32.35 45.12L32.69 44.41L33.04 43.60L33.39 42.70L33.74 41.71L34.08 40.64L34.43 39.50L34.78 38.30L35.13 37.05L35.47 35.77L35.82 34.45L36.17 33.11L36.52 31.76L36.86 30.41L37.21 29.08L37.56 27.77L37.91 26.49L38.25 25.26L38.60 24.08L38.95 22.97L39.30 21.93L39.64 20.97L39.99 20.10L40.34 19.32L40.69 18.65L41.03 18.09L41.38 17.63L41.73 17.29L42.08 17.07L42.42 16.98L42.77 17.00L43.12 17.14L43.47 17.40L43.81 17.78L44.16 18.28L44.51 18.88L44.85 19.59L45.20 20.40L45.55 21.30L45.90 22.29L46.24 23.36L46.59 24.50L46.94 25.70L47.29 26.95L47.63 28.23L47.98 29.55L48.33 30.89L48.68 32.24L49.02 33.59L49.37 34.92L49.72 36.23L50.07 37.51L50.41 38.74L50.76 39.92L51.11 41.03L51.46 42.07L51.80 43.03L52.15 43.90L52.50 44.68L52.85 45.35L53.19 45.91L53.54 46.37L53.89 46.71L54.24 46.93L54.58 47.02L54.93 47.00L55.28 46.86L55.63 46.60L55.97 46.22L56.32 45.72" fill="none" stroke="#1C1B17" stroke-width="3.65" stroke-linecap="round" opacity="0.42"/>
<path d="M7.68 47.03L8.03 46.97L8.37 46.79L8.72 46.49L9.07 46.07L9.42 45.54L9.76 44.90L10.11 44.16L10.46 43.32L10.81 42.39L11.15 41.37L11.50 40.28L11.85 39.12L12.20 37.91L12.54 36.64L12.89 35.34L13.24 34.02L13.59 32.67L13.93 31.33L14.28 29.98L14.63 28.66L14.98 27.36L15.32 26.09L15.67 24.88L16.02 23.72L16.37 22.63L16.71 21.61L17.06 20.68L17.41 19.84L17.76 19.10L18.10 18.46L18.45 17.93L18.80 17.51L19.15 17.21L19.49 17.03L19.84 16.97L20.19 17.03L20.53 17.21L20.88 17.51L21.23 17.93L21.58 18.46L21.92 19.10L22.27 19.84L22.62 20.68L22.97 21.61L23.31 22.63L23.66 23.72L24.01 24.88L24.36 26.09L24.70 27.36L25.05 28.66L25.40 29.98L25.75 31.33L26.09 32.67L26.44 34.02L26.79 35.34L27.14 36.64L27.48 37.91L27.83 39.12L28.18 40.28L28.53 41.37L28.87 42.39L29.22 43.32L29.57 44.16L29.92 44.90L30.26 45.54L30.61 46.07L30.96 46.49L31.31 46.79L31.65 46.97L32.00 47.03L32.35 46.97L32.69 46.79L33.04 46.49L33.39 46.07L33.74 45.54L34.08 44.90L34.43 44.16L34.78 43.32L35.13 42.39L35.47 41.37L35.82 40.28L36.17 39.12L36.52 37.91L36.86 36.64L37.21 35.34L37.56 34.02L37.91 32.67L38.25 31.33L38.60 29.98L38.95 28.66L39.30 27.36L39.64 26.09L39.99 24.88L40.34 23.72L40.69 22.63L41.03 21.61L41.38 20.68L41.73 19.84L42.08 19.10L42.42 18.46L42.77 17.93L43.12 17.51L43.47 17.21L43.81 17.03L44.16 16.97L44.51 17.03L44.85 17.21L45.20 17.51L45.55 17.93L45.90 18.46L46.24 19.10L46.59 19.84L46.94 20.68L47.29 21.61L47.63 22.63L47.98 23.72L48.33 24.88L48.68 26.09L49.02 27.36L49.37 28.66L49.72 29.98L50.07 31.33L50.41 32.67L50.76 34.02L51.11 35.34L51.46 36.64L51.80 37.91L52.15 39.12L52.50 40.28L52.85 41.37L53.19 42.39L53.54 43.32L53.89 44.16L54.24 44.90L54.58 45.54L54.93 46.07L55.28 46.49L55.63 46.79L55.97 46.97L56.32 47.03" fill="none" stroke="#1C1B17" stroke-width="3.65" stroke-linecap="round"/>
<circle cx="7.68" cy="47.03" r="3.28" fill="#1C1B17"/>
<circle cx="56.32" cy="47.03" r="3.28" fill="#1C1B17"/>
</svg>