<svg xmlns="http://www.w3.org/2000/svg" viewBox="92 112 326 286"><style>path{stroke:#1A1815;fill:none}path:last-child{fill:#1A1815;stroke:none}@media (prefers-color-scheme:dark){path{stroke:#EFEAE2}path:last-child{fill:#EFEAE2}}</style><path d="M 119.8 351.4 C 120.7 342.8 123.5 316.9 125.1 299.7 C 126.6 282.5 128.4 265.2 129.1 247.9 C 129.9 230.6 128.0 213.5 129.6 195.9 C 131.2 178.3 134.0 146.2 138.7 142.3 C 143.4 138.5 150.9 162.9 157.7 172.8 C 164.4 182.6 172.6 191.4 179.2 201.3 C 185.8 211.3 190.3 222.5 197.3 232.5 C 204.3 242.4 213.7 261.1 221.0 261.0 C 228.4 260.8 234.7 241.4 241.6 231.6 C 248.4 221.9 255.3 212.1 262.3 202.5 C 269.4 192.9 276.5 183.6 283.9 173.9 C 291.2 164.2 302.3 140.4 306.4 144.1 C 310.5 147.8 307.1 178.8 308.4 196.0 C 309.7 213.3 313.5 230.4 314.3 247.7 C 315.1 265.0 312.3 282.5 313.2 299.8 C 314.2 317.1 318.9 342.8 320.0 351.4 " fill="none" stroke-width="26" stroke-linecap="round" stroke-linejoin="round"/><path d="M 387.7 352.0 C 387.5 353.0 386.5 356.0 386.3 357.9 C 386.0 359.9 387.0 362.3 386.1 363.7 C 385.1 365.1 382.1 365.3 380.3 366.4 C 378.5 367.6 377.1 370.0 375.2 370.6 C 373.2 371.2 370.7 370.4 368.6 370.1 C 366.5 369.9 363.8 370.3 362.5 369.1 C 361.1 367.9 361.2 365.0 360.5 363.0 C 359.8 361.0 358.4 358.8 358.1 356.9 C 357.8 355.1 358.6 353.6 358.6 351.9 C 358.6 350.2 357.4 348.2 358.0 346.8 C 358.5 345.4 360.7 345.0 361.9 343.7 C 363.0 342.4 363.5 340.1 364.8 339.1 C 366.1 338.2 368.0 338.3 369.6 338.2 C 371.2 338.0 372.6 338.1 374.4 338.1 C 376.3 338.2 378.5 338.1 380.6 338.4 C 382.6 338.7 385.9 338.6 386.9 339.8 C 387.8 341.1 386.2 343.9 386.2 345.9 C 386.3 348.0 386.9 351.0 387.0 352.0 Z" /></svg>