<svg xmlns="http://www.w3.org/2000/svg" viewBox="74 120 272 272"><style>.m{stroke:#1A1815}.e{stroke:#1A1815;opacity:.38}@media (prefers-color-scheme:dark){.m{stroke:#EFEAE2}.e{stroke:#EFEAE2}}path{fill:none;stroke-width:26;stroke-linecap:round;stroke-linejoin:round}</style><path class="e" transform="translate(-14 12)" d="M 119.8 351.4 C 120.7 342.8 123.5 316.9 125.1 299.7 C 126.6 282.5 128.4 265.2 129.1 247.9 C 129.9 230.6 128.0 213.5 129.6 195.9 C 131.2 178.3 134.0 146.2 138.7 142.3 C 143.4 138.5 150.9 162.9 157.7 172.8 C 164.4 182.6 172.6 191.4 179.2 201.3 C 185.8 211.3 190.3 222.5 197.3 232.5 C 204.3 242.4 213.7 261.1 221.0 261.0 C 228.4 260.8 234.7 241.4 241.6 231.6 C 248.4 221.9 255.3 212.1 262.3 202.5 C 269.4 192.9 276.5 183.6 283.9 173.9 C 291.2 164.2 302.3 140.4 306.4 144.1 C 310.5 147.8 307.1 178.8 308.4 196.0 C 309.7 213.3 313.5 230.4 314.3 247.7 C 315.1 265.0 312.3 282.5 313.2 299.8 C 314.2 317.1 318.9 342.8 320.0 351.4"/><path class="m" d="M 119.8 351.4 C 120.7 342.8 123.5 316.9 125.1 299.7 C 126.6 282.5 128.4 265.2 129.1 247.9 C 129.9 230.6 128.0 213.5 129.6 195.9 C 131.2 178.3 134.0 146.2 138.7 142.3 C 143.4 138.5 150.9 162.9 157.7 172.8 C 164.4 182.6 172.6 191.4 179.2 201.3 C 185.8 211.3 190.3 222.5 197.3 232.5 C 204.3 242.4 213.7 261.1 221.0 261.0 C 228.4 260.8 234.7 241.4 241.6 231.6 C 248.4 221.9 255.3 212.1 262.3 202.5 C 269.4 192.9 276.5 183.6 283.9 173.9 C 291.2 164.2 302.3 140.4 306.4 144.1 C 310.5 147.8 307.1 178.8 308.4 196.0 C 309.7 213.3 313.5 230.4 314.3 247.7 C 315.1 265.0 312.3 282.5 313.2 299.8 C 314.2 317.1 318.9 342.8 320.0 351.4"/></svg>
